Coordinates
version=1
nRows=15
nColumns=23
inDegrees=yes

Units are S.I. units (second, meters, Newtons, ...)
If the header above contains a line with 'inDegrees', this indicates whether rotational values are in degrees (yes) or radians (no).

endheader
time	pelvis_tilt	pelvis_list	pelvis_rotation	pelvis_tx	pelvis_ty	pelvis_tz	hip_flexion_r	hip_adduction_r	hip_rotation_r	knee_angle_r	knee_angle_r_beta	ankle_angle_r	subtalar_angle_r	mtp_angle_r	hip_flexion_l	hip_adduction_l	hip_rotation_l	knee_angle_l	knee_angle_l_beta	ankle_angle_l	subtalar_angle_l	mtp_angle_l
      7.50000000	     -2.76609790	     -2.25171383	     -6.07358141	      2.06910621	      0.97203943	      1.02854616	     -0.01789648	      4.34192938	     -3.50452451	     34.17833841	      0.59652454	     18.99460535	      5.98778468	      0.00000000	     32.60758666	     -7.64207276	     -4.42339285	     88.09861374	      1.53761088	      6.48558114	    -10.74953880	      0.00000000
      7.50666667	     -2.60969857	     -1.58140693	     -5.84139409	      2.07118736	      0.97802164	      1.02839644	     -2.07982351	      3.55109628	     -3.73334287	     32.14816367	      0.56109130	     16.65179701	      6.04573986	      0.00000000	     32.65034608	     -6.97537749	     -5.14249216	     85.57281791	      1.49352742	      6.77484457	    -10.62430358	      0.00000000
      7.51333333	     -2.48761725	     -0.95699113	     -5.62853376	      2.07323228	      0.98394221	      1.02824124	     -4.06791302	      2.86134083	     -3.87278594	     30.10628703	      0.52545383	     14.06410005	      5.82745760	      0.00000000	     32.65458913	     -6.36718664	     -5.88365469	     82.92934888	      1.44739018	      7.09356116	    -10.25657155	      0.00000000
      7.52000000	     -2.41877286	     -0.31787569	     -5.35447673	      2.07534992	      0.98968740	      1.02790007	     -5.91911589	      2.14493943	     -4.19623140	     28.16691193	      0.49160535	     11.37012978	      5.65077607	      0.00000000	     32.64144881	     -5.67521291	     -6.57591550	     80.15004432	      1.39888217	      7.37621390	     -9.83175943	      0.00000000
      7.52666667	     -2.41894672	      0.34532236	     -5.00296942	      2.07746840	      0.99516386	      1.02732959	     -7.58834632	      1.38397061	     -4.75656570	     26.39889912	      0.46074771	      8.66154249	      5.62196165	      0.00000000	     32.65050288	     -4.87114864	     -7.19433722	     77.25362726	      1.34833015	      7.63059906	     -9.32713672	      0.00000000
      7.53333333	     -2.63589025	      0.95741159	     -4.74634563	      2.07946959	      1.00011965	      1.02681469	     -8.83814928	      0.66147726	     -5.34896143	     24.94087572	      0.43530040	      5.90883054	      5.66101548	      0.00000000	     32.82755447	     -4.16612799	     -7.85561161	     74.28043224	      1.29643811	      7.82646313	     -8.69119082	      0.00000000
      7.54000000	     -2.48834035	      1.41529900	     -4.41210224	      2.08161447	      1.00543886	      1.02619356	    -10.57770083	      0.18757893	     -5.73280290	     23.24697329	      0.40573622	      2.94763282	      5.26715557	      0.00000000	     32.50449469	     -3.57811679	     -8.46964077	     71.17189867	      1.24218397	      7.99917789	     -7.93641777	      0.00000000
      7.54666667	     -2.68042941	      1.90390238	     -4.05629911	      2.08361779	      1.00996713	      1.02539252	    -11.67158637	     -0.39168097	     -6.49475462	     22.09783111	      0.38567991	      0.22507060	      5.27406335	      0.00000000	     32.53383766	     -2.87518315	     -8.98007672	     68.00171679	      1.18685386	      8.12596741	     -7.12060886	      0.00000000
      7.55333333	     -2.84936329	      2.29688610	     -3.70066780	      2.08555030	      1.01428951	      1.02453109	    -12.68213504	     -0.85275401	     -7.18151581	     21.11850077	      0.36858737	     -2.46099409	      5.17321274	      0.00000000	     32.47631511	     -2.25191108	     -9.46235296	     64.74838767	      1.13007255	      8.21573896	     -6.16935392	      0.00000000
      7.56000000	     -3.09849793	      2.61924600	     -3.33403583	      2.08734357	      1.01817817	      1.02361003	    -13.43115236	     -1.26498214	     -7.96516718	     20.46558734	      0.35719188	     -5.01860087	      5.12549111	      0.00000000	     32.46795391	     -1.64966259	     -9.86319593	     61.43280031	      1.07220463	      8.25991216	     -5.11589583	      0.00000000
      7.56666667	     -3.67189063	      2.84653604	     -2.99279019	      2.08900874	      1.02127403	      1.02263737	    -13.59346837	     -1.63633719	     -8.84372049	     20.27474953	      0.35386113	     -7.32355161	      5.06678958	      0.00000000	     32.78694226	     -1.16895657	    -10.27265254	     58.11659447	      1.01432592	      8.24896056	     -4.02081659	      0.00000000
      7.57333333	     -4.10932225	      3.02091514	     -2.59684058	      2.09070147	      1.02421880	      1.02156768	    -13.84370493	     -1.94582187	     -9.74092043	     20.20890401	      0.35271191	     -9.50802282	      4.93297123	      0.00000000	     32.89827507	     -0.67197271	    -10.62025298	     54.72416673	      0.95511689	      8.21535508	     -2.82346887	      0.00000000
      7.58000000	     -4.42978926	      3.08099123	     -2.18504441	      2.09213205	      1.02696904	      1.02048822	    -14.06723356	     -2.13179009	    -10.52101597	     20.42786294	      0.35653347	    -11.48307978	      4.72140407	      0.00000000	     32.85695814	     -0.19071948	    -10.79154560	     51.29308479	      0.89523321	      8.18198493	     -1.48877292	      0.00000000
      7.58666667	     -4.84233841	      3.10229441	     -1.77510540	      2.09358928	      1.02915942	      1.01932704	    -14.09334623	     -2.30030629	    -11.26440280	     20.87073989	      0.36426313	    -13.21129673	      4.41306664	      0.00000000	     32.87234799	      0.25487546	    -10.98857703	     47.85931240	      0.83530258	      8.13269558	     -0.09643529	      0.00000000
      7.59333333	     -5.21444039	      3.09655029	     -1.34679435	      2.09481058	      1.03097146	      1.01811304	    -14.00867406	     -2.46559913	    -11.96356166	     21.63342209	      0.37757444	    -14.63490239	      4.00244517	      0.00000000	     32.82532651	      0.71851035	    -11.13651887	     44.42753419	      0.77540675	      8.08851131	      1.40371484	      0.00000000
